<svg width="48" height="48" fill="none" xmlns="http://www.w3.org/2000/svg"><path d="M24 14.248c2.485 0 4.5-2.182 4.5-4.875 0-.125-.004-.25-.013-.373H31.5c1.091 0 2.183.353 4.301 3.113L42 19.5l-5.998 5.032-2.252-2.684V39h-19.5V21.849l-2.252 2.684L6 19.501l6.2-7.39C14.319 9.353 15.41 9 16.5 9h3.013a5.359 5.359 0 00-.013.373c0 2.693 2.015 4.875 4.5 4.875z" stroke="#000" stroke-width="1.2"/><path d="M23.74 34.16a5.039 5.039 0 01-1.48-.38 3.919 3.919 0 01-1.2-.82 4.01 4.01 0 01-.84-1.26c-.2-.493-.307-1.06-.32-1.7h1.72c.093.747.327 1.32.7 1.72.373.4.847.653 1.42.76V27.5l-.68-.26c-1.067-.427-1.847-.973-2.34-1.64-.493-.68-.74-1.48-.74-2.4 0-.547.093-1.033.28-1.46.2-.44.467-.813.8-1.12a3.892 3.892 0 011.2-.72c.467-.173.96-.28 1.48-.32v-1.54h1.08v1.58c.44.067.867.193 1.28.38a3.33 3.33 0 011.08.72c.32.293.573.647.76 1.06.2.413.3.88.3 1.4h-1.72c-.08-.493-.267-.9-.56-1.22a2.096 2.096 0 00-1.14-.66v4.68l.5.2c1.053.427 1.853.973 2.4 1.64.56.653.84 1.493.84 2.52 0 .613-.1 1.153-.3 1.62a3.355 3.355 0 01-1.96 1.9c-.453.173-.947.28-1.48.32v1.58h-1.08v-1.6zm3.1-3.7c0-.64-.173-1.147-.52-1.52-.347-.387-.847-.72-1.5-1v4.58a2.392 2.392 0 001.42-.66c.4-.373.6-.84.6-1.4zM21.7 23.2c0 .547.16 1 .48 1.36.32.36.84.693 1.56 1v-4.32c-.64.067-1.14.28-1.5.64-.36.36-.54.8-.54 1.32z" fill="#000"/></svg>