<svg width="48" height="48" fill="none" xmlns="http://www.w3.org/2000/svg"><path d="M21.629 32.403c1.445-.751 3.273-.532 4.486.657a3.703 3.703 0 01-.01 5.307 3.885 3.885 0 01-4.476.68" stroke="#000" stroke-width="1.2"/><ellipse rx="3.795" ry="3.78" transform="scale(1.00934 .99057) rotate(-45 61.624 -25.747)" stroke="#000" stroke-width="1.2"/><path d="M33.168 34.018L27 22.51m-.162 11.52l2.978-5.635m1.566-2.749l5.004-9.64" stroke="#000" stroke-width="1.2" stroke-linecap="round" stroke-linejoin="round"/><ellipse cx="25.27" cy="15.422" rx="7.422" ry="3.73" transform="rotate(90 25.27 15.422)" stroke="#000" stroke-width="1.2" stroke-linecap="round" stroke-linejoin="round"/><path d="M25.27 8H11.73C10.35 8 8 9.704 8 15.422v24.602h13.54V15.422m3.868 7.421h-3.592M8 20.92h7.492m-7.216 6.871h3.688M8.276 14.872h3.688M8 34.389h7.492" stroke="#000" stroke-width="1.2" stroke-linecap="round" stroke-linejoin="round"/></svg>