<svg width="38" height="34" fill="none" xmlns="http://www.w3.org/2000/svg"><rect x="1" y="1.25" width="36" height="24" rx="2" stroke="#000" stroke-width="1.2"/><path d="M23.875 10.25h8.25" stroke="#000" stroke-width="1.2" stroke-linecap="round"/><path d="M12.625 9.35c.984 0 1.781-.874 1.781-1.95 0-.05-.002-.1-.005-.15h1.193c.432 0 .864.141 1.702 1.245l2.454 2.955-2.374 2.013-.892-1.074v6.861H8.766v-6.86l-.892 1.073L5.5 11.45l2.454-2.956c.839-1.103 1.27-1.244 1.702-1.244h1.193c-.004.05-.005.1-.005.15 0 1.076.797 1.95 1.781 1.95z" stroke="#000" stroke-width="1.2"/><path d="M23.875 13.25h4.5m-4.5 3h6.75" stroke="#000" stroke-width="1.2" stroke-linecap="round"/><path d="M15.25 25.25h7.5v5.25h-7.5v-5.25zm-6 5.25h19.5v2.25H9.25z" stroke="#000" stroke-width="1.2"/></svg>