<svg width="48" height="48" fill="none" xmlns="http://www.w3.org/2000/svg"><path d="M11.798 8.824A1 1 0 0112.782 8h22.593a1 1 0 01.984.824l2.497 13.958v13.782a1 1 0 01-1 1H10.301a1 1 0 01-1-1V22.782l2.497-13.958z" stroke="#000" stroke-width="1.2"/><path d="M9.908 33.5h9m10.5 0h9" stroke="#000" stroke-width="1.2" stroke-linecap="round"/><path d="M9.301 37.008V40a1 1 0 001 1h3.66a1 1 0 001-1v-2.242m18.236 0V40a1 1 0 001 1h3.659a1 1 0 001-1v-2.992M9.301 22.263h29.555M9.301 25.83h5.725a1 1 0 00.855-.483l1.925-3.18m20.736 3.663h-5.76a1 1 0 01-.826-.437l-2.202-3.227" stroke="#000" stroke-width="1.2"/><rect x="19.363" y="31.988" width="9.464" height="2.593" rx="1" stroke="#000" stroke-width="1.2"/><path d="M18.624 25.626h10.595M17.13 28.22h13.583" stroke="#000" stroke-width="1.2"/><path d="M42 16.771h-3.144v5.492L42 20.865v-4.093zm-36 0h3.144v5.492L6 20.865v-4.093z" stroke="#000" stroke-width="1.2" stroke-linejoin="round"/></svg>