<svg width="48" height="48" fill="none" xmlns="http://www.w3.org/2000/svg"><path d="M33 27.5v10a2 2 0 01-2 2H10a2 2 0 01-2-2v-28a2 2 0 012-2h21a2 2 0 012 2v10" stroke="#000" stroke-width="1.2"/><path d="M11.875 13.25h11.25m-11.25 14h13.25m-13.25 5h8.25m-8.25-12h9.25" stroke="#000" stroke-width="1.2" stroke-linecap="round"/><path d="M30 23.5H8V17h25v3" stroke="#000" stroke-width="1.2"/><path d="M36.828 24l1.55-1.55a.5.5 0 00-.196-.827l-8.89-2.964a.5.5 0 00-.633.633l2.964 8.89a.5.5 0 00.828.196L34 26.828l3.89 3.89a.5.5 0 00.706 0l2.122-2.122a.5.5 0 000-.707L36.828 24z" stroke="#000" stroke-width="1.2"/></svg>