<svg width="48" height="48" fill="none" xmlns="http://www.w3.org/2000/svg"><path d="M7.936 37.802c-.705-.198-1.185-.776-1.186-1.431V17.297c.011-.823.768-1.485 1.698-1.485h15.719c.452-.007.889.146 1.213.425.325.278.51.66.515 1.06v19.074c-.013.588-.412 1.115-1.022 1.35" stroke="#fff" stroke-width="1.2"/><path d="M10.18 37.796h10.875" stroke="#fff"/><circle cx="9.365" cy="38.233" r="1.5" stroke="#fff" stroke-width="1.2" stroke-linecap="round"/><circle cx="23.202" cy="38.233" r="1.5" stroke="#fff" stroke-width="1.2" stroke-linecap="round"/><path d="M13.91 15.584v-.688c.03-.465.523-.838 1.14-.86h2.714c.64-.001 1.169.378 1.2.86v.688" stroke="#fff" stroke-width="1.2" stroke-linecap="round"/><path d="M11.74 15.812V9.726c0-.815.812-1.476 1.813-1.476h5.716c1 0 1.812.66 1.812 1.476v6.086" stroke="#fff" stroke-width="1.2"/><path d="M10.605 19.105v15.023m3.754-15.023v15.023m4.061-15.023v15.023m3.59-15.023v15.023" stroke="#fff" stroke-width="1.2" stroke-linecap="round"/><path stroke="#fff" stroke-width="1.2" d="M28.5 30h12.75v9H28.5zm-.75-3H42v3H27.75zm1.5-5.25h8.25V27h-8.25zm-.75-3h9.75v3H28.5z"/><rect x="32.25" y="32.25" width="5.25" height="1.5" rx=".75" stroke="#fff" stroke-width="1.2"/></svg>