<svg width="48" height="48" fill="none" xmlns="http://www.w3.org/2000/svg"><path d="M11.798 8.824A1 1 0 0112.783 8h22.592a1 1 0 01.985.824l2.496 13.958v13.782a1 1 0 01-1 1H10.302a1 1 0 01-1-1V22.782l2.496-13.958z" stroke="#fff" stroke-width="1.2"/><path d="M9.908 33.5h9m10.5 0h9" stroke="#fff" stroke-width="1.2" stroke-linecap="round"/><path d="M9.302 37.008V40a1 1 0 001 1h3.66a1 1 0 001-1v-2.242m18.234 0V40a1 1 0 001 1h3.66a1 1 0 001-1v-2.992M9.302 22.263h29.554M9.302 25.83h5.724a1 1 0 00.856-.483l1.925-3.181m20.734 3.664h-5.76a1 1 0 01-.826-.437l-2.202-3.227" stroke="#fff" stroke-width="1.2"/><rect x="19.362" y="31.988" width="9.464" height="2.593" rx="1" stroke="#fff" stroke-width="1.2"/><path d="M18.624 25.625H29.22M17.13 28.22h13.582" stroke="#fff" stroke-width="1.2"/><path d="M42 16.771h-3.144v5.492L42 20.865v-4.093zm-36 0h3.144v5.492L6 20.865v-4.093z" stroke="#fff" stroke-width="1.2" stroke-linejoin="round"/></svg>