<svg width="48" height="48" fill="none" xmlns="http://www.w3.org/2000/svg"><path d="M32.957 32.935V39H8.25V9h24.707v6.065" stroke="#fff" stroke-width="1.2"/><path clip-rule="evenodd" d="M39.744 21.965c0 3.81-6.787 10.97-6.787 10.97s-6.8-7.16-6.8-10.97c-.1-2.53 1.172-4.912 3.316-6.207a6.714 6.714 0 016.957 0c2.143 1.295 3.415 3.678 3.314 6.207v0z" stroke="#fff" stroke-width="1.2"/><path d="M30.436 22.146l2.055 2.672 3.432-4.86M15.96 28.876h9.298V39H15.96zm-4.222-16.201h3.922v3.98h-3.922zm6.91 0h3.922v3.98h-3.922zm0 7.328h3.922v3.98h-3.922zm-6.91 0h3.922v3.98h-3.922zm16.775-3.348H25.58v-3.98h3.922v3.349" stroke="#fff" stroke-width="1.2"/></svg>