<svg width="50" height="50" fill="none" xmlns="http://www.w3.org/2000/svg"><path d="M29.125 11.5c.125.75.075 2.7-1.125 4.5m-11.625-3l4.81-2.806m0 0L26.126 13m-4.94-2.806V7.13c2.197 0 2.98-1.758 2.98-3.064 0-1.307-.783-3.065-2.98-3.065-2.195 0-2.978 1.748-2.978 3.065" stroke="#fff" stroke-width="1.2" stroke-linecap="round" stroke-linejoin="round"/><path d="M32.219 31.574V26.15l2.534 3.107 6.747-5.825-6.974-8.55c-2.383-3.195-3.61-3.603-4.839-3.603h-3.389c.01.142.015.286.015.432 0 3.116-2.267 5.642-5.063 5.642s-5.062-2.526-5.062-5.642c0-.146.005-.29.014-.432h-3.39c-1.227 0-2.454.408-4.836 3.6L1 23.431l6.747 5.825 2.534-3.107V46H27.25" stroke="#fff" stroke-width="1.2"/><path d="M10.75 42.25h16.125m-13.5-30.75C13 14.125 15.25 20.125 20.5 20.125m-17.25.75L9.625 26.5m23.25 0l6.375-5.625" stroke="#fff" stroke-width="1.2" stroke-linecap="round" stroke-linejoin="round"/><path stroke="#fff" stroke-width="1.2" d="M27.25 36.25H47.5V49H27.25zm-1.5-4.5H49v4.5H25.75z"/></svg>