<svg width="48" height="48" fill="none" xmlns="http://www.w3.org/2000/svg"><path d="M27.094 13.875c.093.563.056 2.025-.844 3.375M17.531 15l3.608-2.104m0 0L24.844 15m-3.705-2.104v-2.299c1.647 0 2.234-1.319 2.234-2.298 0-.98-.587-2.299-2.234-2.299s-2.234 1.311-2.234 2.299" stroke="#000" stroke-width="1.2" stroke-linecap="round" stroke-linejoin="round"/><path d="M29.414 28.931v-4.07l1.9 2.331 5.061-4.368-5.23-6.413c-1.788-2.396-2.709-2.703-3.63-2.703h-2.541c.007.107.01.216.01.325 0 2.337-1.7 4.231-3.796 4.231-2.097 0-3.797-1.894-3.797-4.231 0-.11.003-.218.01-.324H14.86c-.92 0-1.84.306-3.627 2.7L6 22.824l5.06 4.368 1.9-2.33V39.75h12.727" stroke="#000" stroke-width="1.2"/><path d="M13.313 36.938h12.093M15.281 13.875c-.28 1.969 1.407 6.469 5.344 6.469m-12.937.562l4.78 4.219m17.438 0l4.782-4.219" stroke="#000" stroke-width="1.2" stroke-linecap="round" stroke-linejoin="round"/><path stroke="#000" stroke-width="1.2" d="M25.688 32.438h15.188v9.563H25.688zm-1.125-3.375h17.438v3.375H24.563z"/></svg>