<svg width="50" height="46" fill="none" xmlns="http://www.w3.org/2000/svg"><path d="M8.57 1.824A1 1 0 019.553 1h30.681a1 1 0 01.985.824l3.377 18.885v18.71a1 1 0 01-1 1H6.191a1 1 0 01-1-1v-18.71L8.57 1.824z" stroke="#fff" stroke-width="1.2"/><path d="M6 35h12m14 0h12" stroke="#fff" stroke-width="1.2" stroke-linecap="round"/><path d="M5.191 39.678V44a1 1 0 001 1h5.546a1 1 0 001-1v-3.322m24.314 0V44a1 1 0 001 1h5.546a1 1 0 001-1v-4.322" stroke="#fff" stroke-width="1.2"/><path d="M5.191 20.018h39.407M5.191 24.772h7.821a1 1 0 00.855-.482l2.664-4.402m27.647 4.884h-7.856a1 1 0 01-.826-.436l-3.035-4.448" stroke="#fff" stroke-width="1.6"/><rect x="18.606" y="32.984" width="12.618" height="3.458" rx="1" stroke="#fff" stroke-width="1.6"/><path d="M17.621 24.501H31.75m-16.12 3.458h18.11" stroke="#fff" stroke-width="1.6"/><path d="M48.79 12.695h-4.193v7.323l4.193-1.865v-5.458zm-48 0h4.192v7.323L.79 18.153v-5.458z" stroke="#fff" stroke-width="1.2" stroke-linejoin="round"/></svg>