<svg width="48" height="48" fill="none" xmlns="http://www.w3.org/2000/svg"><path d="M11.64 8.324a1 1 0 01.984-.824h22.593a1 1 0 01.985.824l2.496 13.958v13.782a1 1 0 01-1 1H10.143a1 1 0 01-1-1V22.282L11.64 8.324z" stroke="#000" stroke-width="1.2"/><path d="M9.75 33h9m10.5 0h9" stroke="#000" stroke-width="1.2" stroke-linecap="round"/><path d="M9.143 36.508V39.5a1 1 0 001 1h3.66a1 1 0 001-1v-2.242m18.236 0V39.5a1 1 0 001 1h3.659a1 1 0 001-1v-2.992M9.143 21.763h29.555M9.143 25.33h5.725a1 1 0 00.855-.483l1.925-3.18m20.736 3.663h-5.76a1 1 0 01-.826-.437l-2.202-3.227" stroke="#000" stroke-width="1.2"/><rect x="19.205" y="31.488" width="9.464" height="2.593" rx="1" stroke="#000" stroke-width="1.2"/><path d="M18.466 25.126H29.06M16.972 27.72h13.583" stroke="#000" stroke-width="1.2"/><path d="M41.842 16.271h-3.144v5.492l3.144-1.398v-4.093zm-36 0h3.144v5.492l-3.144-1.398v-4.093z" stroke="#000" stroke-width="1.2" stroke-linejoin="round"/></svg>