<svg width="50" height="44" fill="none" xmlns="http://www.w3.org/2000/svg"><rect x="1" y="1" width="48" height="32" rx="2" stroke="#fff" stroke-width="1.2"/><path d="M31.5 13h11" stroke="#fff" stroke-width="1.2" stroke-linecap="round"/><path d="M16.5 11.8c1.312 0 2.375-1.165 2.375-2.6 0-.068-.002-.134-.007-.2h1.59c.576 0 1.152.188 2.27 1.66L26 14.6l-3.165 2.684-1.19-1.431V25h-10.29v-9.147l-1.19 1.431L7 14.6l3.273-3.94C11.39 9.187 11.966 9 12.542 9h1.59a2.913 2.913 0 00-.007.2c0 1.435 1.063 2.6 2.375 2.6z" stroke="#fff" stroke-width="1.2"/><path d="M31.5 17h6m-6 4h9" stroke="#fff" stroke-width="1.2" stroke-linecap="round"/><path d="M20 33h10v7H20v-7zm-8 7h26v3H12z" stroke="#fff" stroke-width="1.2"/></svg>