<svg width="48" height="48" fill="none" xmlns="http://www.w3.org/2000/svg"><path d="M37.712 20.625V8a2 2 0 00-2-2h-14.94a2 2 0 00-2 2v9.25m18.94 16.5v2.178a2 2 0 01-2 2H20.767a2 2 0 01-2-1.996l-.018-9.307" stroke="#000" stroke-width="1.2"/><path d="M18.75 9.75H6m12.75 3h-5.625m5.625 3h-8.625" stroke="#000" stroke-width="1.2" stroke-linecap="round"/><path d="M34.313 16.313a5.812 5.812 0 11-11.625 0 5.812 5.812 0 0111.625 0z" stroke="#000" stroke-width="1.2"/><path d="M26.25 16.578l1.61 2.172 2.973-4.5" stroke="#000" stroke-width="1.6" stroke-linecap="round" stroke-linejoin="round"/><path d="M29.25 38.25L26.625 42m-7.861-15.419c1.353-1.663 2.071-3.898 2.071-6 0-1.995-.83-3.058-1.769-3.276-.565-.132-1.03.35-1.217.9-.09.268-.193.59-.301.962-.411 1.414-1.438 3.435-2.466 5.253-1.027 1.819-1.438 4.446-1.438 7.88 0 3.436.41 5.86-.617 7.881L12 42" stroke="#000" stroke-width="1.2" stroke-linecap="round"/><path d="M37.585 15.299l1.438-.808c.616-.27 2.014-.526 2.671.606.822 1.414-.205 2.425-.822 2.829-.493.323-2.397 1.482-3.287 2.02m0 .402c.616-.135 1.972-.202 2.465.606.617 1.01 1.233 2.223 0 3.031-.986.647-1.096.674-1.027.606.342 0 1.11.121 1.438.607.411.606.617 1.616.411 2.626-.164.809-1.164 1.415-1.644 1.617.274.067.863.364 1.028 1.01.205.808.205 2.223-.617 2.627-.657.323-1.507.674-1.849.808" stroke="#000" stroke-width="1.2"/><path d="M37.79 20.266l-2.755 1.806a.859.859 0 00-.381.52c-.234 1.038-.065 2.569 2.122 2.33l2.705-.333" stroke="#000" stroke-width="1.2"/><path d="M39.386 29.426c-1.353 0-4.059-.066-4.059-1.662 0-1.996 1.041-2.724 4.423-3.389" stroke="#000" stroke-width="1.2"/><path d="M39.375 29.625c-.79.11-3.295.315-3.295 1.646 0 .665.338 2.993 2.367 2.328" stroke="#000" stroke-width="1.2" stroke-linecap="round"/></svg>