<svg width="64" height="64" fill="none" xmlns="http://www.w3.org/2000/svg"><path d="M50.282 27.5V10a2 2 0 00-2-2H27.03a2 2 0 00-2 2v13m25.252 22v3.571a2 2 0 01-2 2H27.026a2 2 0 01-2-1.996L25 35.5" stroke="#fff" stroke-width="1.2"/><path d="M25 13H8m17 4h-7.5m7.5 4H13.5" stroke="#fff" stroke-width="1.2" stroke-linecap="round"/><path d="M45.75 21.75a7.75 7.75 0 11-15.5 0 7.75 7.75 0 0115.5 0z" stroke="#fff" stroke-width="1.2"/><path d="M35 22.103L37.147 25l3.964-6" stroke="#fff" stroke-width="1.6" stroke-linecap="round" stroke-linejoin="round"/><path d="M39 51l-3.5 5M25.019 35.442c1.803-2.217 2.762-5.198 2.762-8 0-2.872-1.29-4.295-2.66-4.417-.578-.052-1.03.413-1.223.961a30.4 30.4 0 00-.5 1.57c-.549 1.886-1.919 4.58-3.288 7.004-1.37 2.425-1.918 5.928-1.918 10.508 0 4.58.548 7.813-.822 10.507L16 56" stroke="#fff" stroke-width="1.2" stroke-linecap="round"/><path d="M50.113 20.398l1.918-1.077c.821-.36 2.684-.7 3.561.808 1.096 1.886-.274 3.233-1.096 3.772-.657.431-3.196 1.976-4.383 2.694m0 .535c.822-.18 2.63-.27 3.287.809.822 1.347 1.644 2.963 0 4.04-1.315.863-1.46.899-1.37.81.457 0 1.48.16 1.918.807.548.809.822 2.156.548 3.503-.219 1.078-1.552 1.886-2.192 2.155.366.09 1.151.485 1.37 1.347.274 1.078.274 2.964-.822 3.503a38.14 38.14 0 01-2.465 1.077" stroke="#fff" stroke-width="1.2"/><path d="M50.387 27.02l-3.77 2.472a.888.888 0 00-.386.52c-.348 1.38-.192 3.544 2.803 3.217l3.607-.444" stroke="#fff" stroke-width="1.2"/><path d="M52.514 39.235c-1.804 0-5.411-.088-5.411-2.217 0-2.66 1.388-3.631 5.897-4.518" stroke="#fff" stroke-width="1.2"/><path d="M52.5 39.5c-1.052.148-4.394.42-4.394 2.194 0 .887.451 3.991 3.157 3.104" stroke="#fff" stroke-width="1.2" stroke-linecap="round"/></svg>