<svg width="64" height="64" fill="none" xmlns="http://www.w3.org/2000/svg"><path d="M27 18.499c1.657 0 3-1.455 3-3.25 0-.084-.003-.167-.009-.249H32c.728 0 1.455.235 2.867 2.075L39 22l-3.998 3.355-1.502-1.79V35h-13V23.566l-1.502 1.79L15 22l4.134-4.926C20.545 15.235 21.273 15 22 15h2.009a3.592 3.592 0 00-.009.249c0 1.795 1.343 3.25 3 3.25z" stroke="#000" stroke-width="1.2"/><path d="M34.483 17.074A3.427 3.427 0 0034.99 15H37c.728 0 1.455.235 2.867 2.075L44 22l-3.998 3.355-1.502-1.79V35h-5" stroke="#000" stroke-width="1.2"/><path d="M39.483 17.074A3.427 3.427 0 0039.99 15H42c.728 0 1.455.235 2.867 2.075L49 22l-3.998 3.355-1.502-1.79V35h-5" stroke="#000" stroke-width="1.2"/><path d="M24.5 15.5l2.405-1.403m0 0l2.47 1.403m-2.47-1.403v-1.532c1.098 0 1.49-.88 1.49-1.533 0-.653-.392-1.532-1.49-1.532-1.098 0-1.489.874-1.489 1.532M29.5 15.5l2.405-1.403m0 0l2.47 1.403m-2.47-1.403v-1.532c1.098 0 1.49-.88 1.49-1.533 0-.653-.392-1.532-1.49-1.532-1.098 0-1.489.874-1.489 1.532M34.5 15.5l2.405-1.403m0 0l2.47 1.403m-2.47-1.403v-1.532c1.098 0 1.49-.88 1.49-1.533 0-.653-.392-1.532-1.49-1.532-1.098 0-1.489.874-1.489 1.532" stroke="#000" stroke-width="1.2" stroke-linecap="round" stroke-linejoin="round"/><path d="M26.5 11H10v27m22-27h3.5M29 11h1.5m6.5 0h17v27" stroke="#000" stroke-width="1.2" stroke-linecap="round"/><path d="M12 46.5h18v9.25H12V46.5zM11 42h20.25v4.5H11zm24 4.5h18v9.25H35V46.5zM34 42h20.25v4.5H34z" stroke="#000" stroke-width="1.2"/></svg>