<svg width="64" height="64" fill="none" xmlns="http://www.w3.org/2000/svg"><path d="M18.589 13.455L13 14.98V54h35.261V14.98l-5.995-1.525" stroke="#000" stroke-width="1.2" stroke-linecap="round"/><path d="M16 53.98V57h35.261V17.98l-2.998-.763M23.5 9.5H38" stroke="#000" stroke-width="1.2" stroke-linecap="round"/><path d="M33.019 22.398L32.815 54h-4.674V22.398" stroke="#000" stroke-width="1.2" stroke-linecap="round"/><path d="M31.5 28a1 1 0 11-2 0 1 1 0 012 0zm0 9a1 1 0 11-2 0 1 1 0 012 0zm0 9a1 1 0 11-2 0 1 1 0 012 0zm16.761-13.136h-7.316v11.482l5.893 3.964 1.423-.915m-7.316-11.686h7.316M22.958 10l-4.37 3.455L26.21 23.82l4.37-3.15L22.958 10z" stroke="#000" stroke-width="1.2" stroke-linecap="round"/><path d="M38.201 10l4.37 3.455-7.622 10.365-4.37-3.15L38.202 10z" stroke="#000" stroke-width="1.2" stroke-linecap="round"/></svg>