<svg width="64" height="64" fill="none" xmlns="http://www.w3.org/2000/svg"><path d="M25.065 32.36h5.63c-.405-1.327-1.186-4.603-1.064-7.081C29.783 22.18 29.935 12 20.957 12c-8.979 0-8.826 10.18-8.826 12.098 0 1.918-.913 6.492-1.674 8.263H17" stroke="#000" stroke-width="1.2" stroke-linecap="round" stroke-linejoin="round"/><path d="M28.108 24.025c0 3.87-3.236 7.008-7.228 7.008-3.992 0-7.228-3.138-7.228-7.008" stroke="#000"/><path d="M29.326 26.016c-.913-2.213-4.322-6.668-10.652-6.786-.812 1.327-3.227 4.19-6.392 5.016M10 51.926V39.444c0-.738.41-2.405 2.054-3.172a224.154 224.154 0 004.565-2.213c.482.959 2.01 2.877 4.261 2.877M14 44v7.5M27.5 44v7.5M8 52h44m-20.12-.074V39.444c0-.738-.41-2.405-2.054-3.172a224.677 224.677 0 01-4.565-2.213c-.482.959-2.009 2.877-4.261 2.877M17 30c.076 1.131.107 3.54-.38 4.13M25.033 30c-.076 1.131-.107 3.541.38 4.131M36 25.491c-1.258-1.401-2-3.126-2-4.991 0-4.694 4.701-8.5 10.5-8.5S55 15.806 55 20.5 50.299 29 44.5 29a12.72 12.72 0 01-3.557-.5" stroke="#000" stroke-width="1.2" stroke-linecap="round" stroke-linejoin="round"/><path d="M43.903 19.192V15.5h1.131v3.692l-.221 2.652h-.689l-.221-2.652zm.559 5.642a.939.939 0 01-.689-.286.962.962 0 01-.273-.689c0-.26.091-.485.273-.676a.92.92 0 01.689-.299c.269 0 .494.1.676.299.19.19.286.416.286.676a.939.939 0 01-.286.689.897.897 0 01-.676.286z" fill="#000"/><path d="M36 25.5c-.167 1.167-1.1 3.6-3.5 4 1.833.833 6.1 1.8 8.5-1M21 37v11" stroke="#000" stroke-width="1.2" stroke-linecap="round" stroke-linejoin="round"/></svg>