<svg width="64" height="64" fill="none" xmlns="http://www.w3.org/2000/svg"><path d="M39 58H9V23.696a7 7 0 017-7h16a7 7 0 017 7v8.652" stroke="#000" stroke-width="1.2"/><path d="M17 19.718l7.117-2.63m0 0L31 19.718m-6.883-2.63v-3.696c2.666 0 3.616-2.12 3.616-3.696 0-1.575-.95-3.696-3.616-3.696C21.45 6 20.5 8.109 20.5 9.696" stroke="#000" stroke-width="1.2"/><path d="M17 16.696v2a3 3 0 003 3h8a3 3 0 003-3v-2" stroke="#000" stroke-width="1.2"/><path fill-rule="evenodd" clip-rule="evenodd" d="M14.818 29.862H14v3.896h.818v-1.577H20v-.741h-5.182v-1.578zm2.695 12.063H14.03v.741h3.554c1.543-.025 2.375-.835 2.375-2.3 0-1.484-.854-2.306-2.44-2.33H14.03v.74h3.483l.06.002c1.082.034 1.568.52 1.568 1.589 0 1.085-.5 1.558-1.628 1.558zm-3.483-6.298h5.111V33.96h.818v2.408H14.03v-.74zm5.929 7.81L14.03 46.03v.645l5.929 2.318v-.807l-1.92-.75v-2.337l1.92-.84v-.823zm-5.928 9.618l4.496-1.764-4.496-1.784v-.809l5.928 2.352v.486l-5.928 2.326v-.807zm3.191-5.94l-2.002-.782 2.002-.875v1.658z" fill="#000"/><path d="M25 22.5v35" stroke="#000" stroke-width="1.2" stroke-linecap="round" stroke-linejoin="round"/><path stroke="#000" stroke-width="1.2" d="M39.125 48.375h15.188v9.563H39.125zM38 45h17.438v3.375H38zm1.125-9.625h15.188v9.563H39.125zM38 32h17.438v3.375H38z"/></svg>