<svg width="64" height="64" fill="none" xmlns="http://www.w3.org/2000/svg"><path d="M25.066 32.36h5.63c-.406-1.327-1.187-4.603-1.065-7.081C29.783 22.18 29.935 12 20.957 12s-8.826 10.18-8.826 12.098c0 1.918-.913 6.492-1.674 8.263H17" stroke="#000" stroke-width="1.2" stroke-linecap="round" stroke-linejoin="round"/><path d="M28.108 24.025c0 3.87-3.236 7.008-7.228 7.008-3.992 0-7.228-3.138-7.228-7.008" stroke="#000"/><path d="M29.326 26.016c-.913-2.213-4.322-6.669-10.652-6.787-.812 1.328-3.227 4.19-6.392 5.017M10 51.926V39.443c0-.738.41-2.405 2.054-3.172a224.154 224.154 0 004.565-2.214c.482.96 2.01 2.877 4.261 2.877M14 44v7.5M27.5 44v7.5M8 52h44m-20.12-.074V39.443c0-.738-.41-2.405-2.054-3.172a224.677 224.677 0 01-4.565-2.214c-.482.96-2.009 2.877-4.261 2.877M17 30c.076 1.131.107 3.54-.38 4.13M25.033 30c-.076 1.13-.107 3.54.38 4.13M36 25.491c-1.258-1.401-2-3.126-2-4.991 0-4.694 4.701-8.5 10.5-8.5S55 15.806 55 20.5 50.299 29 44.5 29a12.72 12.72 0 01-3.557-.5" stroke="#000" stroke-width="1.2" stroke-linecap="round" stroke-linejoin="round"/><path d="M36 25.5c-.167 1.167-1.1 3.6-3.5 4 1.833.833 6.1 1.8 8.5-1m7.685 12.377c.64-.715 1.02-1.594 1.02-2.544 0-2.393-2.397-4.333-5.353-4.333S39 35.94 39 38.333c0 2.393 2.396 4.332 5.352 4.332.636 0 1.247-.09 1.813-.255" stroke="#000" stroke-width="1.2" stroke-linecap="round" stroke-linejoin="round"/><path d="M48.685 40.881c.085.595.56 1.835 1.784 2.04-.935.424-3.11.917-4.333-.51M39.5 19H49m-9.5 4H44M21 37v11m21.5-9.5h4" stroke="#000" stroke-width="1.2" stroke-linecap="round" stroke-linejoin="round"/></svg>