<svg width="64" height="64" fill="none" xmlns="http://www.w3.org/2000/svg"><path d="M22.399 51.735h18.08m-28.16 0h-2.305a2 2 0 01-2-2.014l.135-19.735a2 2 0 012-1.986h33.233a2 2 0 011.564.754l10.618 13.332A2 2 0 0156 43.332v6.403a2 2 0 01-2 2h-3.2" stroke="#000" stroke-width="1.2"/><path d="M42.537 30.917h-6.654a1 1 0 00-1 1v6.546a1 1 0 001 1h11.583a1 1 0 00.8-1.602l-4.93-6.546a1 1 0 00-.8-.398z" stroke="#000" stroke-width="1.2"/><path clip-rule="evenodd" d="M50.716 50.943c0 2.792-2.254 5.057-5.035 5.057-2.78 0-5.035-2.265-5.035-5.057 0-2.793 2.254-5.059 5.035-5.059 2.78 0 5.035 2.266 5.035 5.059zm-28.17 0c0 2.792-2.253 5.057-5.035 5.057-2.78 0-5.034-2.265-5.034-5.057 0-2.793 2.253-5.059 5.034-5.059 2.782 0 5.035 2.266 5.035 5.059z" stroke="#000" stroke-width="1.2"/><path d="M22.639 8C14.554 8 8 14.628 8 22.803c0 .871 1.157-1.741 2.583-1.741 1.427 0 1.723 1.741 2.584 1.741.86 0 1.156-1.741 2.583-1.741 1.427 0 1.722 1.741 2.583 1.741.861 0 1.157-1.741 2.584-1.741 1.426 0 1.722 1.741 2.583 1.741.861 0 1.157-1.741 2.583-1.741 1.427 0 1.723 1.741 2.584 1.741.86 0 1.156-1.741 2.583-1.741 1.427 0 1.722 1.741 2.583 1.741.861 0 1.157-1.741 2.584-1.741 1.426 0 2.583 2.612 2.583 1.741C39 14.628 32.446 8 24.361 8H22.64z" stroke="#000" stroke-width="1.2"/><path d="M19.366 36.91c0 1.154.925 2.09 2.067 2.09a2.078 2.078 0 002.067-2.09V22.629" stroke="#000" stroke-width="1.2"/><path d="M23.5 22.63V8m-7.921 12.888C15.579 16.592 17.163 8 23.5 8m7.579 12.888C31.079 16.592 29.494 8 23.156 8" stroke="#000" stroke-width="1.2" stroke-linecap="round" stroke-linejoin="round"/></svg>