<svg width="64" height="64" fill="none" xmlns="http://www.w3.org/2000/svg"><path d="M26.066 29.36h5.63c-.406-1.327-1.187-4.603-1.065-7.081C30.783 19.18 30.935 9 21.957 9s-8.826 10.18-8.826 12.098c0 1.918-.913 6.492-1.674 8.263H18" stroke="#000" stroke-width="1.2" stroke-linecap="round" stroke-linejoin="round"/><path d="M29.108 21.025c0 3.87-3.236 7.008-7.228 7.008-3.992 0-7.228-3.138-7.228-7.008m18.87-.001c0 3.87 3.236 7.008 7.228 7.008 3.992 0 7.228-3.137 7.228-7.008-.05-.688-.198-2.228-.38-2.877" stroke="#000"/><path d="M30.326 23.016c-.913-2.213-4.322-6.669-10.652-6.787-.812 1.328-3.227 4.19-6.392 5.017M11 44.926v-8.483c0-.738.41-2.405 2.054-3.172a224.154 224.154 0 004.565-2.214c.482.96 2.01 2.877 4.261 2.877 2.253 0 3.931-1.918 4.49-2.877l3.043 1.77M18 27c.076 1.131.107 3.54-.38 4.13M26.033 27c-.076 1.13-.107 3.54.38 4.13M40.75 39v-4.918c1.243-.393 3.804-1.667 4.109-3.615l5.706 1.845c.812.32 2.435 1.327 2.435 4.13V45M36.87 16.081c-.427 3.01-2.41 4.402-3.349 4.722-.76-.861-2.039-3.57-1.065-7.525 1.217-4.943 7-3.54 9.13-3.098 1.705.354 5.479-.148 7.153-.443.203.467.67 1.962.913 4.205.243 2.243-1.268 3.787-2.055 4.279-3.47-2.951-8.597-2.656-10.728-2.14zm7.989 14.459C44.68 29.657 44.642 28 45 27m-4.326 7.082c-1.243-.393-3.804-1.667-4.109-3.615l-5.706 1.845c-.736.29-2.137 1.144-2.394 3.386m8.101-5.158c.177-.884.426-2.655 0-3.54" stroke="#000" stroke-width="1.2" stroke-linecap="round" stroke-linejoin="round"/><circle cx="32.5" cy="45.5" r="10.5" stroke="#000" stroke-width="1.2" stroke-linecap="round" stroke-linejoin="round"/><path d="M32.5 38l1.684 5.182h5.449l-4.409 3.203 1.684 5.183-4.408-3.203-4.408 3.203 1.684-5.183-4.409-3.203h5.45L32.5 38zM7 45.5h14.5m21.5 0h14m-46 3h10.5m21.5 0h9.5" stroke="#000" stroke-width="1.2" stroke-linecap="round" stroke-linejoin="round"/></svg>