<svg width="64" height="64" fill="none" xmlns="http://www.w3.org/2000/svg"><path d="M27.708 28v-3.295l-2.377 1.864L19 22.2l6.545-7.883C27.78 11.376 28.932 11 30.083 11h3.18a6.532 6.532 0 00-.013.398c0 2.872 2.127 5.2 4.75 5.2s4.75-2.328 4.75-5.2c0-.134-.005-.267-.014-.398h3.18c1.153 0 2.305.376 4.54 3.32L57 22.2l-6.33 5.369-2.378-2.864V43H36" stroke="#000" stroke-width="1.2"/><circle cx="22" cy="41" r="14" stroke="#000" stroke-width="1.2"/><circle cx="22.001" cy="41.001" r="10.957" stroke="#000" stroke-width="1.2"/><path d="M22 34.913v5.174m0-8.587v1m0 17v1M12.5 41h1m17 0h1m-16.218-6.718l.707.708M28.01 47.01l.707.708m-13.435 0l.707-.708M28.01 34.99l.707-.708" stroke="#000" stroke-width="1.2" stroke-linecap="round" stroke-linejoin="round"/><circle cx="21.999" cy="40.999" r="1.826" fill="#000"/><rect x="22.609" y="40.391" width="4.87" height="1.217" rx=".609" fill="#000"/></svg>