<svg width="50" height="50" fill="none" xmlns="http://www.w3.org/2000/svg"><path d="M18.575 16.771c-2.222-2.285-6.267-7.268-4.667-8.914 1.508-1.55 3.725-2.005 5.092-2.053 1.367.048 3.584.503 5.092 2.053 1.6 1.646-2.445 6.629-4.667 8.914.444.915 1.6 3.018 2.666 4.115 1.334 1.371 4 2.743 7.334 2.057 3.333-.686 10-6.857 6.667-13.714-3.193-6.568-12.406-8.119-16.85-8.223V1c-.079 0-.16 0-.242.002A19.756 19.756 0 0018.758 1v.006C14.314 1.11 5.101 2.66 1.908 9.229c-3.333 6.857 3.334 13.028 6.667 13.714 3.334.686 6-.686 7.334-2.057 1.066-1.097 2.222-3.2 2.666-4.115z" stroke="#000" stroke-width="1.2"/><path d="M7.667 49h-.6v.6h.6V49zm-.6-26.346V49h1.2V22.654h-1.2zm12.358-6.483h-.85v1.2h.85v-1.2zM7.666 49.6H27.5v-1.2H7.666v1.2zm23.267-18.1v-8.846h-1.2V31.5h1.2z" fill="#000"/><path d="M35.067 17.745V31.5h1.2V17.745h-1.2zM31.049 31.5v-8.895h-1.2V31.5h1.2z" fill="#000"/><path d="M19.391 49h3.522V21.8" stroke="#000" stroke-width="1.2"/><path d="M2.333 17.745l.52-.3-1.12-1.935v2.235h.6zm5.218 4.86h.6v-.393l-.36-.157-.24.55zm0 17.48v.6h.6v-.6h-.6zm-5.218-1.37h-.6v.305l.247.18.353-.486zm-.519-20.67c1.418 2.451 3.653 4.304 5.497 5.11l.48-1.1c-1.603-.7-3.645-2.376-4.938-4.61l-1.039.6zm5.137 4.56v17.48h1.2v-17.48h-1.2zm.6 16.88c-1.583 0-2.814-.325-3.643-.645a7.25 7.25 0 01-.934-.434 4.297 4.297 0 01-.279-.17l-.01-.008.001.001-.353.485c-.353.485-.352.486-.352.486h.001l.003.003.007.005a1.625 1.625 0 00.103.07c.068.043.165.103.29.174.252.14.618.325 1.091.508.947.365 2.325.726 4.075.726v-1.2zm-4.618-.77v-20.97h-1.2v20.97h1.2z" fill="#000"/><path d="M20.333 29.8c0 .757-.597 1.371-1.333 1.371s-1.334-.614-1.334-1.371.598-1.371 1.334-1.371c.736 0 1.333.614 1.333 1.371z" fill="#C4C4C4"/><path d="M20.333 36.657c0 .758-.597 1.372-1.333 1.372s-1.334-.614-1.334-1.372c0-.757.598-1.371 1.334-1.371.736 0 1.333.614 1.333 1.371zm0 6.857c0 .758-.597 1.372-1.333 1.372s-1.334-.614-1.334-1.372c0-.757.598-1.371 1.334-1.371.736 0 1.333.614 1.333 1.371zm0-13.714c0 .757-.597 1.371-1.333 1.371s-1.334-.614-1.334-1.371.598-1.371 1.334-1.371c.736 0 1.333.614 1.333 1.371z" fill="#010101"/><path stroke="#000" stroke-width="1.2" d="M27.25 36.25H47.5V49H27.25zm-1.5-4.5H49v4.5H25.75z"/></svg>