<svg width="40" height="52" fill="none" xmlns="http://www.w3.org/2000/svg"><path d="M18.68 2.021a1.734 1.734 0 012.64 0l1.947 2.309c.465.55 1.233.752 1.916.503l2.864-1.044c1.007-.367 2.106.255 2.285 1.293l.51 2.954a1.696 1.696 0 001.402 1.375l3.013.5c1.06.175 1.694 1.253 1.32 2.24l-1.066 2.808a1.658 1.658 0 00.514 1.878l2.354 1.91a1.658 1.658 0 010 2.586l-2.354 1.91a1.658 1.658 0 00-.514 1.878l1.066 2.808c.374.987-.26 2.065-1.32 2.24l-3.013.5c-.718.119-1.28.67-1.402 1.375l-.51 2.954c-.18 1.038-1.278 1.66-2.285 1.293l-2.864-1.044a1.734 1.734 0 00-1.916.503l-1.947 2.31a1.734 1.734 0 01-2.638 0l-1.948-2.309a1.734 1.734 0 00-1.916-.503l-2.864 1.044c-1.007.367-2.106-.255-2.285-1.293l-.51-2.954a1.696 1.696 0 00-1.402-1.375l-3.013-.5c-1.06-.175-1.694-1.253-1.32-2.24l1.066-2.808a1.658 1.658 0 00-.514-1.878l-2.354-1.91a1.658 1.658 0 010-2.586l2.354-1.91a1.658 1.658 0 00.514-1.878l-1.066-2.81c-.375-.986.26-2.064 1.319-2.24l3.013-.5a1.696 1.696 0 001.402-1.374l.51-2.954c.18-1.038 1.278-1.66 2.285-1.293l2.864 1.044a1.734 1.734 0 001.916-.503l1.947-2.31z" stroke="#fff" stroke-width="1.2"/><ellipse cx="20.118" cy="20.04" rx="11.414" ry="11.19" stroke="#fff" stroke-width="1.2"/><path d="M19.856 14.477a.288.288 0 01.524 0l1.375 3.111a.285.285 0 00.235.167l3.443.322a.279.279 0 01.162.488l-2.593 2.244a.277.277 0 00-.09.27l.753 3.31c.054.24-.209.426-.424.302l-2.978-1.724a.29.29 0 00-.29 0l-2.978 1.724c-.215.124-.478-.063-.424-.302l.752-3.31a.276.276 0 00-.09-.27l-2.592-2.244a.279.279 0 01.162-.488l3.442-.322a.285.285 0 00.235-.167l1.376-3.11zM21.91 37.5l5.341 11.913 2.283-6.434 6.277 2.937L30.581 34M9.67 34L4.14 45.916l6.277-2.937 2.283 6.434L17.83 37.5" stroke="#fff" stroke-width="1.2"/></svg>