<svg width="436" height="78" fill="none" xmlns="http://www.w3.org/2000/svg"><path fill-rule="evenodd" clip-rule="evenodd" d="M44.232 55.052c0 3.69-3.196 6.855-11.239 6.855-8.867 0-16.6-4.852-21.342-12.656L0 59.165c4.949 9.597 15.981 18.034 33.406 18.034 15.569 0 27.323-10.02 27.323-23.413 0-16.168-14.764-20.177-26.4-23.336-7.567-2.055-13.811-3.75-13.811-8.197 0-4.219 3.402-6.96 10.826-6.96 8.042 0 14.022 4.218 18.146 8.858l10.723-10.546C54.027 5.168 44.232 0 31.963 0 14.846 0 4.02 10.757 4.02 22.464c0 15.822 14.028 19.833 25.513 23.118 7.96 2.276 14.698 4.203 14.698 9.47zm19.61-37.81h23.1v58.369h15.984V17.242h23.203V1.992H63.843v15.25zm102.629 59.56c-20.625 0-37.228-16.252-37.228-38.202 0-21.317 16.294-38.2 37.228-38.2 20.625 0 37.125 16.251 37.125 38.201 0 21.74-16.5 38.202-37.125 38.202zm-20.489-37.805c0-13.665 9.63-22.284 20.489-22.284 10.449 0 20.386 8.62 20.386 22.284 0 13.666-9.117 22.285-20.386 22.285-10.859 0-20.489-8.62-20.489-22.285zm83.691 11.478v25.136h-15.955V1.993h29.131c22.495 0 28.877 11.312 29.123 23.247l.008.731c0 9.465-5.456 18.09-14.103 21.56l20.073 28.08h-19.249l-17.602-25.136h-11.426zm12.463-33.364c10.174 0 12.846 3.532 12.846 8.885 0 5.994-4.419 9.42-12.23 9.42h-13.463V17.11h12.847zm59.171 58.5h-16.35V1.993h16.35V75.61zm13.625 0h56.057V60.36h-40.085V45.638h36.582V30.914h-36.582V17.242h39.158V1.992h-55.13v73.619zm89.874-30.03c7.959 2.277 14.697 4.204 14.697 9.47 0 3.692-3.196 6.856-11.238 6.856-8.867 0-16.6-4.852-21.343-12.656l-11.651 9.914c4.949 9.597 15.982 18.034 33.406 18.034 15.569 0 27.323-10.02 27.323-23.413 0-16.168-14.764-20.177-26.4-23.336-7.567-2.055-13.811-3.75-13.811-8.197 0-4.219 3.403-6.96 10.826-6.96 8.042 0 14.022 4.218 18.147 8.858l10.723-10.546C429.298 5.168 419.503 0 407.234 0c-17.115 0-27.941 10.757-27.941 22.464 0 15.822 14.028 19.833 25.513 23.118z" fill="url(#paint0_linear)"/><defs><linearGradient id="paint0_linear" x1="0" y1="0" x2="0" y2="77.199" gradientUnits="userSpaceOnUse"><stop stop-color="#F2F2F2"/><stop offset="1" stop-color="#fff"/></linearGradient></defs></svg>