<svg width="64" height="64" fill="none" xmlns="http://www.w3.org/2000/svg"><rect x="8" y="11" width="48" height="32" rx="2" stroke="#000" stroke-width="1.2"/><path d="M38.5 23h11" stroke="#000" stroke-width="1.2" stroke-linecap="round"/><path d="M23.5 21.8c1.312 0 2.375-1.165 2.375-2.6 0-.068-.002-.134-.007-.2h1.59c.576 0 1.152.188 2.27 1.66L33 24.6l-3.165 2.684-1.19-1.431V35h-10.29v-9.147l-1.19 1.431L14 24.6l3.273-3.94C18.39 19.187 18.966 19 19.542 19h1.59a2.913 2.913 0 00-.007.2c0 1.435 1.063 2.6 2.375 2.6z" stroke="#000" stroke-width="1.2"/><path d="M38.5 27h6m-6 4h9" stroke="#000" stroke-width="1.2" stroke-linecap="round"/><path d="M27 43h10v7H27v-7zm-8 7h26v3H19z" stroke="#000" stroke-width="1.2"/></svg>