<svg width="64" height="64" fill="none" xmlns="http://www.w3.org/2000/svg"><path d="M17.554 31.52v-6.645h5.793v2.61m3.986 9.848L8 41.774v-3.679L27.49 24.88m1.304 23.685l-7.52 4.956v1.99L30 53.52m16.443-21.997v-6.645h-5.832v2.61m-3.945 9.845L56 41.77v-3.68L36.509 24.874m-1.307 23.693l7.482 4.956v1.99L34 53.332" stroke="#000" stroke-width="1.2" stroke-linecap="round" stroke-linejoin="round"/><path d="M31.822 56l-.652-.901-2.072-5.632c-1.688-4.843-1.611-12.426-1.611-12.426V16.654c0-7.095 4.335-7.32 4.335-7.32h.346s4.335.262 4.335 7.32v20.387s.077 7.62-1.611 12.426L32.82 55.1l-.652.901h-.346z" stroke="#000" stroke-width="1.2" stroke-linecap="round" stroke-linejoin="round"/></svg>