<svg width="64" height="64" fill="none" xmlns="http://www.w3.org/2000/svg"><path d="M30.778 10C19.303 10 10 19.407 10 31.011c0 1.236 1.642-2.471 3.667-2.471s2.444 2.471 3.666 2.471c1.223 0 1.642-2.471 3.667-2.471s2.445 2.471 3.667 2.471 1.641-2.471 3.666-2.471c2.026 0 2.445 2.471 3.667 2.471s1.642-2.471 3.667-2.471 2.444 2.471 3.666 2.471c1.223 0 1.642-2.471 3.667-2.471s2.445 2.471 3.667 2.471 1.642-2.471 3.667-2.471S54 32.246 54 31.01C54 19.407 44.698 10 33.222 10h-2.444z" stroke="#000" stroke-width="1.2"/><path d="M26.133 51.034c0 1.638 1.313 2.966 2.933 2.966C30.686 54 32 52.672 32 51.034v-20.27" stroke="#000" stroke-width="1.2"/><path d="M32 30.764V10M20.759 28.292C20.759 22.195 23.008 10 32.003 10m10.756 18.292c0-6.097-2.25-18.292-11.245-18.292" stroke="#000" stroke-width="1.2" stroke-linecap="round" stroke-linejoin="round"/></svg>