<svg width="64" height="64" fill="none" xmlns="http://www.w3.org/2000/svg"><path d="M17.5 22.022L20 20.5m7.962-4.087v-.804c0-1.105 1.023-1.907 1.846-2.643.647-.578.907-1.444.907-2.161 0-1.196-.723-2.805-2.753-2.805-2.03 0-2.753 1.6-2.753 2.805m2.753 5.608L33 19m-5.038-2.587l-5.243 2.805M38.5 22.022L36 20.5M13 53.647a24.646 24.646 0 01-2.935 2.03c3.9.7 11.013 0 13.078-4.207 1.148 1.87 5.507 4.206 13.768 4.206L34.499 53c1.236.503 5.018.824 7 .431" stroke="#000" stroke-width="1.2"/><path d="M27.962 24.45c3.042 0 5.507-3.914 5.507-7.012 0-.109-.003-.216-.009-.324l3.107 1.726-3.098 13.322c3.304 11.218 11.014 14.957 14.456 15.424.55 4.488-2.065 7.479-3.442 8.414-7.159-5.048-12.16-13.789-13.767-17.528.55 7.291 2.983 12.854 4.13 14.723-5.507 0-10.096-2.337-11.702-3.505-6.058 5.609-12.62 3.739-15.144 2.103 9.362-1.683 13.997-13.789 15.144-19.631L19.702 18.84l2.754-1.402c0 3.098 2.465 7.011 5.506 7.011z" stroke="#000" stroke-width="1.2"/><path d="M28.637 30h.712v-1.2h-.712V30zm2.112 1.4v1.1h1.2v-1.1h-1.2zm-1.4 2.5h-.712v1.2h.712v-1.2zm-2.112-1.4v-1.1h-1.2v1.1h1.2zm1.4 1.4a1.4 1.4 0 01-1.4-1.4h-1.2a2.6 2.6 0 002.6 2.6v-1.2zm2.112-1.4a1.4 1.4 0 01-1.4 1.4v1.2a2.6 2.6 0 002.6-2.6h-1.2zm-1.4-2.5a1.4 1.4 0 011.4 1.4h1.2a2.6 2.6 0 00-2.6-2.6V30zm-.712-1.2a2.6 2.6 0 00-2.6 2.6h1.2a1.4 1.4 0 011.4-1.4v-1.2z" fill="#000"/><path d="M23.5 32H33" stroke="#000" stroke-linecap="round" stroke-linejoin="round"/><circle cx="52" cy="12" r="3" stroke="#000" stroke-width="1.2"/><circle cx="52" cy="25" r="3" stroke="#000" stroke-width="1.2"/><circle cx="52" cy="25" r="1" stroke="#000" stroke-width="1.2"/><circle cx="52" cy="38" r="3" stroke="#000" stroke-width="1.2"/><path d="M52 15v7m0 6v7" stroke="#000" stroke-linecap="round" stroke-linejoin="round"/></svg>