<svg width="64" height="64" fill="none" xmlns="http://www.w3.org/2000/svg"><path d="M42 29h5.5v24h6.151L54 26.085 32.158 11 10 26.085V53h6V29h20.875M22 45v3m0-15v7m7-7v2m0 5v8" stroke="#000" stroke-width="1.2" stroke-linecap="round" stroke-linejoin="round"/><rect x="27" y="35" width="4" height="5" rx="2" stroke="#000" stroke-width="1.2" stroke-linecap="round" stroke-linejoin="round"/><rect x="20" y="40" width="4" height="5" rx="2" stroke="#000" stroke-width="1.2" stroke-linecap="round" stroke-linejoin="round"/><path clip-rule="evenodd" d="M41.859 37.814V26.317c0-1.28-1.056-2.317-2.359-2.317s-2.359 1.038-2.359 2.317v11.497c-1.714 1.037-2.519 3.066-1.97 4.97C35.718 44.685 37.486 46 39.5 46s3.781-1.314 4.33-3.217c.548-1.903-.257-3.932-1.971-4.969z" stroke="#000" stroke-width="1.2" stroke-linecap="round" stroke-linejoin="round"/><path d="M39.5 32.5V40" stroke="#000" stroke-linecap="round" stroke-linejoin="round"/><circle cx="39.5" cy="41.5" r="1.5" stroke="#000" stroke-width="1.2" stroke-linecap="round" stroke-linejoin="round"/></svg>