<svg width="64" height="64" fill="none" xmlns="http://www.w3.org/2000/svg"><path d="M42 29h5.5v24h6.151L54 26.085 32.158 11 10 26.085V53h6V29h20.875" stroke="#000" stroke-width="1.2" stroke-linecap="round" stroke-linejoin="round"/><path d="M22.184 32.84v2.344h-2.343m11.247 0h-2.343v-2.343m-6.561 11.247v-2.343h-2.343m11.247 0h-2.343v2.343m-1.624-11.967l-1.657 1.657-1.656-1.657m3.313 12.687l-1.657-1.657-1.656 1.657m-4.687-8l1.657 1.657-1.657 1.656m12.687 0l-1.657-1.656 1.657-1.657m-6.344-4.904v13.121m-6.56-6.56h13.121M20.778 43.15l9.373-9.372m-9.373 0l9.373 9.373" stroke="#000" stroke-linecap="round" stroke-linejoin="round"/><path clip-rule="evenodd" d="M41.859 38.814V27.317c0-1.28-1.056-2.317-2.359-2.317s-2.359 1.038-2.359 2.317v11.497c-1.714 1.037-2.519 3.066-1.97 4.97C35.718 45.685 37.486 47 39.5 47s3.781-1.314 4.33-3.217c.548-1.903-.257-3.932-1.971-4.969z" stroke="#000" stroke-width="1.2" stroke-linecap="round" stroke-linejoin="round"/><path d="M39.5 33.5V41" stroke="#000" stroke-linecap="round" stroke-linejoin="round"/><circle cx="39.5" cy="42.5" r="1.5" stroke="#000" stroke-width="1.2" stroke-linecap="round" stroke-linejoin="round"/></svg>