<svg width="36" height="34" fill="none" xmlns="http://www.w3.org/2000/svg"><path d="M18.003 27.084c-.397 0-.754-.08-1.072-.238a1.835 1.835 0 01-.742-.651l.777-.651c.122.187.28.331.476.434.197.103.397.154.602.154.201 0 .362-.044.483-.133a.414.414 0 00.182-.35.488.488 0 00-.16-.364c-.108-.103-.285-.196-.532-.28l-.42-.147c-.402-.14-.707-.327-.918-.56a1.256 1.256 0 01-.307-.861c0-.233.041-.441.125-.623.084-.187.201-.343.35-.469.15-.13.327-.229.532-.294.206-.07.43-.105.672-.105.309 0 .593.056.855.168.26.107.499.28.713.518l-.671.693a1.113 1.113 0 00-.89-.427c-.084 0-.168.01-.252.028a.707.707 0 00-.21.084.47.47 0 00-.146.14.313.313 0 00-.056.189c0 .15.06.268.182.357.125.084.322.173.587.266l.4.147c.364.135.65.322.86.56.215.233.323.539.323.917a1.42 1.42 0 01-.49 1.085c-.154.13-.339.233-.553.308-.21.07-.444.105-.7.105zm4.016-5.054h.903L25.07 27h-1.064l-.483-1.134h-2.121L20.927 27h-1.05l2.142-4.97zm-.238 2.947h1.365l-.68-1.61-.685 1.61zm3.844-2.947h1.015v4.004h2.128V27h-3.143v-4.97zm3.855 0h3.094v.966h-2.079v1.022h1.66v.966h-1.66v1.05h2.08V27H29.48v-4.97z" fill="#000"/><path d="M27.208 20v-5.295l2.128 2.864L35 12.2l-5.855-7.88c-2-2.945-3.03-3.32-4.062-3.32h-2.845c.008.131.012.264.012.398 0 2.872-1.903 5.2-4.25 5.2s-4.25-2.328-4.25-5.2c0-.134.004-.267.012-.398h-2.845c-1.03 0-2.061.376-4.06 3.318L1 12.201l5.664 5.368 2.128-2.864V33h18.416v-4" stroke="#000" stroke-width="1.2"/><path d="M12.553 20.35a1 1 0 01.76-.35H34a1 1 0 011 1v7a1 1 0 01-1 1H13.312a1 1 0 01-.76-.35l-2.995-3.5a1 1 0 010-1.3l2.995-3.5z" stroke="#000" stroke-width="1.2"/><path d="M14 24.5a1 1 0 11-2 0 1 1 0 012 0z" fill="#000"/></svg>