<svg width="64" height="64" fill="none" xmlns="http://www.w3.org/2000/svg"><path d="M9.582 50.403c-.94-.263-1.58-1.035-1.582-1.908V23.064c.015-1.098 1.024-1.98 2.264-1.98h20.959a2.43 2.43 0 011.617.565c.433.372.68.88.687 1.415v25.43c-.017.785-.55 1.488-1.363 1.8" stroke="#000" stroke-width="1.2"/><path d="M13.572 50.395h14.5" stroke="#000"/><circle cx="11.486" cy="50.977" r="2" stroke="#000" stroke-width="1.2" stroke-linecap="round"/><circle cx="29.936" cy="50.977" r="2" stroke="#000" stroke-width="1.2" stroke-linecap="round"/><path d="M17.545 20.779v-.918c.04-.62.698-1.117 1.521-1.147h3.619c.854 0 1.558.504 1.6 1.147v.918" stroke="#000" stroke-width="1.2" stroke-linecap="round"/><path d="M14.654 21.083v-8.115c0-1.087 1.082-1.968 2.417-1.968h7.621c1.335 0 2.417.881 2.417 1.968v8.115" stroke="#000" stroke-width="1.2"/><path d="M13.14 25.474v20.03m5.005-20.03v20.03m5.414-20.03v20.03m4.787-20.03v20.03" stroke="#000" stroke-width="1.2" stroke-linecap="round"/><path stroke="#000" stroke-width="1.2" d="M37 40h17v12H37zm-1-4h19v4H36zm2-7h11v7H38zm-1-4h13v4H37z"/><rect x="42" y="43" width="7" height="2" rx="1" stroke="#000" stroke-width="1.2"/></svg>