<svg width="64" height="64" fill="none" xmlns="http://www.w3.org/2000/svg"><path d="M53 43h1a2 2 0 002-2V13a2 2 0 00-2-2H10a2 2 0 00-2 2v28a2 2 0 002 2h17.25" stroke="#000" stroke-width="1.2"/><path d="M15.79 36.692c-.47-.131-.79-.517-.79-.953v-12.71c.008-.549.512-.99 1.131-.99h10.475c.301-.005.592.097.809.283a.95.95 0 01.343.707v12.71c-.009.392-.275.743-.681.9" stroke="#000" stroke-width="1.2"/><circle cx="16.742" cy="36.98" r="1" stroke="#000" stroke-width="1.2" stroke-linecap="round"/><path d="M18 37h6.5" stroke="#000" stroke-width="1.2" stroke-linecap="round"/><circle cx="25.962" cy="36.98" r="1" stroke="#000" stroke-width="1.2" stroke-linecap="round"/><path d="M18 22.04v-4.056c0-.544.54-.984 1.208-.984H23.5c.667 0 1.208.44 1.208.984v4.055" stroke="#000" stroke-width="1.2"/><path d="M19 29.556L20.444 31l3-3" stroke="#000" stroke-width="1.2" stroke-linecap="round"/><path d="M27 43h10v7H27v-7zm10 7H19v3h20" stroke="#000" stroke-width="1.2"/><rect x="37" y="22" width="16" height="31" rx="2" stroke="#000" stroke-width="1.2"/><circle cx="45" cy="38" r="5" stroke="#000" stroke-width="1.2"/><path d="M43.057 38.056L44.5 39.5l3-3m-4-11.5h3" stroke="#000" stroke-width="1.2" stroke-linecap="round"/></svg>