<svg width="64" height="64" fill="none" xmlns="http://www.w3.org/2000/svg"><path d="M10.457 40.016h6.754" stroke="#000" stroke-width="1.2" stroke-linecap="round"/><path d="M17.763 32.197h7.05c4.898 0 7.25 2.533 7.25 2.533l10.156 9.885c.463.47 1.021 1.773-.453 3.216-1.473 1.442-3.683-.602-5.525-2.405l-3.07-3.005" stroke="#000" stroke-width="1.2" stroke-linecap="round" stroke-linejoin="round"/><path d="M17.763 43.533h2.202c1.817 0 3.885 1.901 3.885 1.901s6.547 6.345 8.163 7.927C33.629 54.943 36.408 55 36.408 55l16.167-.601s3.335 0 3.425-2.498c0-1.997-2.116-2.54-3.173-2.562h-4.275c-1.238-.002-3.96-.186-4.943-.907M10.457 31h5.754a1 1 0 011 1v12.426a1 1 0 01-1 1h-5.754V31zM8 31h2.456v14.426H8z" stroke="#000" stroke-width="1.2" stroke-linecap="round" stroke-linejoin="round"/><path d="M15 36.5a1 1 0 11-2 0 1 1 0 012 0z" stroke="#000" stroke-width="1.2" stroke-linecap="round"/><path d="M53.164 49.294c.813-.312 1.346-1.015 1.363-1.8v-25.43c-.007-.534-.254-1.043-.687-1.415a2.43 2.43 0 00-1.617-.566h-20.96c-1.239 0-2.248.883-2.263 1.98V32.78" stroke="#000" stroke-width="1.2"/><path d="M38.545 19.779v-.918c.04-.62.699-1.117 1.521-1.147h3.62c.853 0 1.558.504 1.6 1.147v.918" stroke="#000" stroke-width="1.2" stroke-linecap="round"/><path d="M35.654 20.083v-8.115c0-1.087 1.082-1.968 2.417-1.968h7.621c1.335 0 2.417.881 2.417 1.968v8.115" stroke="#000" stroke-width="1.2"/><path d="M34.14 24.474v12.03m5.005-12.03v17.03m5.414-17.03v20.03m4.786-20.03v20.03" stroke="#000" stroke-width="1.2" stroke-linecap="round"/></svg>