<svg width="64" height="64" fill="none" xmlns="http://www.w3.org/2000/svg"><path d="M26.066 31.36h5.63c-.406-1.327-1.187-4.603-1.065-7.081C30.783 21.18 30.935 11 21.957 11s-8.826 10.18-8.826 12.098c0 1.918-.913 6.492-1.674 8.263H18" stroke="#000" stroke-width="1.2" stroke-linecap="round" stroke-linejoin="round"/><path d="M29.108 23.025c0 3.87-3.236 7.008-7.228 7.008-3.992 0-7.228-3.138-7.228-7.008m18.87-.001c0 3.871 3.236 7.009 7.228 7.009 3.992 0 7.228-3.138 7.228-7.009-.05-.688-.198-2.227-.38-2.877" stroke="#000"/><path d="M30.326 25.016c-.913-2.213-4.322-6.668-10.652-6.786-.812 1.327-3.227 4.19-6.392 5.016M11 46.926v-8.483c0-.738.41-2.405 2.054-3.172a224.154 224.154 0 004.565-2.213c.482.959 2.01 2.877 4.261 2.877 2.253 0 3.931-1.918 4.49-2.877l3.043 1.77" stroke="#000" stroke-width="1.2" stroke-linecap="round" stroke-linejoin="round"/><path d="M19.5 37.5c-1 1.5-1 2.5-2.5 4.5 1.833-.167 4.6-.7 5-3.5m1.5 0l2 2.5c-.333.333-1.6.7-4-.5" stroke="#000" stroke-width="1.2" stroke-linecap="round" stroke-linejoin="round"/><path d="M17.5 33.5c0 1 .165 3.759 3.5 4.5 3.6.8 6.166-2 7-3.5M18 29c.076 1.131.107 3.54-.38 4.13M26.033 29c-.076 1.131-.107 3.541.38 4.131M40.75 47V36.082c1.243-.393 3.804-1.667 4.109-3.615l5.706 1.845c.812.32 2.435 1.327 2.435 4.13V47M8.5 48h47m-47 6h47M36 41v-4l4.5 2-4.5 2z" stroke="#000" stroke-width="1.2" stroke-linecap="round" stroke-linejoin="round"/><path d="M45.5 41v-4L41 39l4.5 2zm-8.63-22.918c-.427 3.01-2.41 4.401-3.349 4.72-.76-.86-2.039-3.57-1.065-7.524 1.217-4.942 7-3.54 9.13-3.098 1.705.354 5.479-.148 7.153-.443.203.468.67 1.963.913 4.205.243 2.243-1.268 3.787-2.055 4.279-3.47-2.95-8.597-2.656-10.728-2.14zm7.989 14.458C44.68 31.657 44.642 30 45 29m-4.326 7.082c-1.243-.393-3.804-1.667-4.109-3.615l-5.706 1.845c-.736.29-2.137 1.144-2.394 3.386V47m8.101-14.46c.177-.884.426-2.655 0-3.54" stroke="#000" stroke-width="1.2" stroke-linecap="round" stroke-linejoin="round"/></svg>