<svg width="64" height="64" fill="none" xmlns="http://www.w3.org/2000/svg"><path d="M22.399 50.735h18.08m-28.16 0H10a2 2 0 01-2-2V29a1 1 0 011-1v0m41.8 22.735H54a2 2 0 002-2v-6.403a2 2 0 00-.436-1.246L44.946 27.754A2 2 0 0043.382 27H35.5" stroke="#000" stroke-width="1.2"/><circle cx="22" cy="23" r="14" stroke="#000" stroke-width="1.2"/><circle cx="22.001" cy="23.001" r="10.957" stroke="#000" stroke-width="1.2"/><path d="M22 16.913v5.174m0-8.587v1m0 17v1M12.5 23h1m17 0h1m-16.218-6.718l.707.707M28.01 29.01l.707.707m-13.435.001l.707-.707M28.01 16.99l.707-.707" stroke="#000" stroke-width="1.2" stroke-linecap="round" stroke-linejoin="round"/><circle cx="22" cy="22.999" r="1.826" fill="#000"/><rect x="22.609" y="22.391" width="4.87" height="1.217" rx=".609" fill="#000"/><path d="M42.536 29.917h-6.653a1 1 0 00-1 1v6.546a1 1 0 001 1h11.583a1 1 0 00.799-1.601l-4.93-6.547a1 1 0 00-.799-.398z" stroke="#000" stroke-width="1.2"/><path clip-rule="evenodd" d="M50.716 49.943c0 2.792-2.254 5.057-5.035 5.057-2.78 0-5.035-2.265-5.035-5.057 0-2.793 2.254-5.059 5.035-5.059 2.78 0 5.035 2.266 5.035 5.059zm-28.17 0c0 2.792-2.253 5.057-5.035 5.057-2.78 0-5.034-2.265-5.034-5.057 0-2.793 2.253-5.059 5.034-5.059 2.782 0 5.035 2.266 5.035 5.059z" stroke="#000" stroke-width="1.2"/></svg>