<svg width="61" height="24" fill="none" xmlns="http://www.w3.org/2000/svg"><path fill-rule="evenodd" clip-rule="evenodd" d="M14.978 4.467c.557-.664.935-1.556.835-2.467-.815.039-1.81.513-2.386 1.177-.517.57-.974 1.498-.855 2.371.915.076 1.83-.436 2.406-1.081z" fill="#000"/><path fill-rule="evenodd" clip-rule="evenodd" d="M16.089 5.56c-1.373-.077-2.54.74-3.196.74-.656 0-1.66-.7-2.747-.681A4.084 4.084 0 006.704 7.6c-1.476 2.411-.39 5.987 1.045 7.95.697.972 1.537 2.042 2.643 2.004 1.046-.04 1.456-.642 2.726-.642s1.64.642 2.746.622c1.147-.02 1.865-.972 2.562-1.944.799-1.108 1.126-2.177 1.147-2.235-.02-.02-2.213-.817-2.233-3.208-.021-2.002 1.72-2.954 1.803-3.013-.984-1.38-2.52-1.535-3.054-1.574zm9.233 5.364h2.665c2.022 0 3.172-1.092 3.172-2.984 0-1.893-1.15-2.975-3.162-2.975h-2.675v5.959zM28.61 3c2.903 0 4.925 2.007 4.925 4.93 0 2.932-2.064 4.95-4.998 4.95h-3.214v5.126H23V3h5.609zm12.34 10.9v-.826l-2.547.163c-1.433.092-2.18.621-2.18 1.549 0 .896.778 1.477 1.995 1.477 1.556 0 2.733-.988 2.733-2.364zm-6.958.947c0-1.885 1.443-2.965 4.104-3.128l2.855-.174v-.815c0-1.192-.788-1.844-2.19-1.844-1.157 0-1.996.59-2.17 1.498h-2.067c.061-1.906 1.862-3.292 4.298-3.292 2.62 0 4.33 1.366 4.33 3.485v7.317h-2.12V16.13h-.05c-.604 1.151-1.935 1.875-3.378 1.875-2.128 0-3.612-1.264-3.612-3.159zm11.587 6.735v-1.749c.142.02.486.04.668.04 1.002 0 1.57-.424 1.914-1.516l.202-.647-3.838-10.618h2.37l2.673 8.615h.051l2.673-8.615h2.31l-3.98 11.154c-.912 2.558-1.955 3.397-4.162 3.397-.173 0-.73-.02-.881-.06z" fill="#000"/></svg>