<svg width="61" height="24" fill="none" xmlns="http://www.w3.org/2000/svg"><path d="M29.957 12.047v6.156H28V3.002h5.19a4.703 4.703 0 013.362 1.316 4.232 4.232 0 011.404 3.208 4.204 4.204 0 01-1.404 3.226c-.908.864-2.028 1.295-3.361 1.294h-3.234v.002zm0-7.174v5.307h3.282a2.59 2.59 0 001.937-.786 2.59 2.59 0 00.582-2.866 2.59 2.59 0 00-.582-.85 2.553 2.553 0 00-1.937-.806h-3.282v.001zm12.509 2.59c1.446 0 2.588.386 3.425 1.157.837.771 1.256 1.83 1.255 3.173v6.41h-1.872V16.76h-.086c-.81 1.189-1.888 1.783-3.233 1.783-1.148 0-2.11-.34-2.882-1.019a3.254 3.254 0 01-1.16-2.547c0-1.076.408-1.932 1.223-2.568.815-.635 1.904-.954 3.265-.956 1.162 0 2.12.213 2.871.637v-.446a2.22 2.22 0 00-.808-1.729 2.775 2.775 0 00-1.889-.712c-1.093 0-1.958.46-2.595 1.38l-1.724-1.082c.948-1.359 2.351-2.038 4.21-2.038zm-2.532 7.556a1.557 1.557 0 00.649 1.274c.433.34.97.52 1.52.51a3.123 3.123 0 002.202-.913c.648-.609.972-1.323.972-2.143-.61-.485-1.46-.728-2.553-.728-.794 0-1.457.192-1.988.574-.536.388-.802.86-.802 1.426zm17.958-7.217l-6.535 14.986h-2.02l2.424-5.244-4.297-9.742h2.128l3.105 7.472h.043l3.02-7.472h2.132z" fill="#000"/><path d="M22.157 10.932c0-.595-.05-1.189-.151-1.775h-8.254v3.363h4.727a4.036 4.036 0 01-1.748 2.654v2.183h2.822c1.652-1.52 2.604-3.767 2.604-6.425z" fill="#4285F4"/><path d="M13.752 19.467c2.362 0 4.35-.774 5.801-2.108l-2.821-2.183c-.786.53-1.797.834-2.98.834-2.283 0-4.22-1.536-4.913-3.605H5.932v2.25a8.741 8.741 0 003.227 3.512c1.38.85 2.97 1.3 4.593 1.3z" fill="#34A853"/><path d="M8.838 12.405a5.222 5.222 0 010-3.343v-2.25H5.932a8.717 8.717 0 000 7.843l2.906-2.25z" fill="#FBBC04"/><path d="M13.752 5.457a4.757 4.757 0 013.358 1.31l2.498-2.492A8.42 8.42 0 0013.752 2a8.76 8.76 0 00-4.593 1.3 8.74 8.74 0 00-3.227 3.511l2.907 2.25c.693-2.069 2.63-3.605 4.913-3.605z" fill="#EA4335"/></svg>