<svg width="83" height="44" fill="none" xmlns="http://www.w3.org/2000/svg"><path d="M13.944 40.144a4.436 4.436 0 01-1.728-.336 4.631 4.631 0 01-1.392-.936c-.4-.4-.716-.868-.948-1.404a4.436 4.436 0 01-.336-1.728c0-.616.112-1.192.336-1.728.232-.536.548-1 .948-1.392.4-.4.864-.712 1.392-.936a4.303 4.303 0 011.728-.348c.816 0 1.552.188 2.208.564a4.192 4.192 0 011.56 1.5l-.936.564a3.277 3.277 0 00-1.176-1.14c-.48-.288-1.032-.432-1.656-.432-.464 0-.896.088-1.296.264-.4.168-.748.404-1.044.708a3.44 3.44 0 00-.936 2.376c0 .472.084.912.252 1.32.168.4.396.752.684 1.056.296.304.644.544 1.044.72.4.168.832.252 1.296.252.624 0 1.176-.14 1.656-.42.488-.288.88-.672 1.176-1.152l.936.564a4.286 4.286 0 01-1.56 1.512c-.656.368-1.392.552-2.208.552zm10.059-1.056c.464 0 .896-.084 1.296-.252a3.122 3.122 0 001.044-.72c.296-.304.528-.656.696-1.056.168-.408.252-.848.252-1.32a3.401 3.401 0 00-.948-2.376 2.981 2.981 0 00-1.044-.708 3.182 3.182 0 00-1.296-.264c-.464 0-.896.088-1.296.264-.4.168-.748.404-1.044.708a3.44 3.44 0 00-.936 2.376c0 .472.084.912.252 1.32.168.4.396.752.684 1.056.296.304.644.544 1.044.72.4.168.832.252 1.296.252zm0 1.056a4.436 4.436 0 01-1.728-.336 4.631 4.631 0 01-1.392-.936c-.4-.4-.716-.868-.948-1.404a4.436 4.436 0 01-.336-1.728c0-.616.112-1.192.336-1.728.232-.536.548-1 .948-1.392.4-.4.864-.712 1.392-.936a4.303 4.303 0 011.728-.348c.616 0 1.192.116 1.728.348.536.224 1 .536 1.392.936.4.392.712.856.936 1.392.232.536.348 1.112.348 1.728 0 .616-.116 1.192-.348 1.728a4.319 4.319 0 01-2.328 2.34 4.436 4.436 0 01-1.728.336zm10.314 0c-.496 0-.948-.08-1.356-.24a3.047 3.047 0 01-1.056-.684 3.376 3.376 0 01-.684-1.092 4.12 4.12 0 01-.24-1.44V31.48h1.116v5.232c0 .768.2 1.356.6 1.764.408.408.948.612 1.62.612.672 0 1.208-.204 1.608-.612.408-.408.612-.996.612-1.764V31.48h1.116v5.208c0 .528-.084 1.008-.252 1.44-.16.424-.388.788-.684 1.092-.288.296-.64.524-1.056.684a3.65 3.65 0 01-1.344.24zm8.207-7.608h-2.652V31.48h6.396v1.056h-2.652V40h-1.092v-7.464zm9.309 7.608c-.496 0-.948-.08-1.356-.24a3.047 3.047 0 01-1.056-.684 3.376 3.376 0 01-.684-1.092 4.12 4.12 0 01-.24-1.44V31.48h1.116v5.232c0 .768.2 1.356.6 1.764.408.408.948.612 1.62.612.672 0 1.208-.204 1.608-.612.408-.408.612-.996.612-1.764V31.48h1.116v5.208c0 .528-.084 1.008-.252 1.44-.16.424-.388.788-.684 1.092-.288.296-.64.524-1.056.684a3.65 3.65 0 01-1.344.24zm6.479-8.664h2.904c.392 0 .744.056 1.056.168.32.112.588.272.804.48.224.208.392.456.504.744.12.288.18.608.18.96 0 .624-.188 1.136-.564 1.536-.368.4-.884.648-1.548.744L64.936 40h-1.404l-3.276-3.876h-.828V40h-1.116v-8.52zm2.772 3.648c.488 0 .868-.108 1.14-.324.28-.216.42-.54.42-.972 0-.432-.14-.76-.42-.984-.272-.224-.652-.336-1.14-.336h-1.656v2.616h1.656zm5.845-3.648h4.968v1.056h-3.852v2.58h3.132v1.056h-3.132v2.772h3.852V40h-4.968v-8.52z" fill="#fff"/><path fill-rule="evenodd" clip-rule="evenodd" d="M83 3.12V.384H69.525v2.738h5.456V20.47h2.563V3.12H83zm-41.717 9.022V.484H38.72v11.658l.002.24c.084 5.162 2.886 7.948 7.95 7.948 5.135 0 7.977-2.858 8.062-8.164V.484h-2.562v11.658l-.005.2c-.116 3.622-1.8 5.25-5.494 5.25-3.753 0-5.39-1.673-5.39-5.45zM63.062.484v17.108h5.765v2.738h-8.328V.484h2.563zM36.056 20.33L27.086.483h-2.232L16.84 20.33h2.79l2.596-6.43h8.078l2.906 6.43h2.846zM2.792.483l6.1 15.05L15.062.484h2.797L9.724 20.33H8.045L0 .484h2.792zM23.33 11.168l2.707-6.7 3.028 6.7H23.33z" fill="#fff"/></svg>