<svg width="24" height="24" fill="none" xmlns="http://www.w3.org/2000/svg"><g clip-path="url(#clip0)" fill="#000"><path fill-rule="evenodd" clip-rule="evenodd" d="M20.625 1.22a1 1 0 01.156 1.405l-16 20a1 1 0 11-1.562-1.25l2.427-3.033A13.05 13.05 0 010 12c1.96-4.698 6.596-8 12.004-8 1.575 0 3.084.28 4.481.793l2.734-3.418a1 1 0 011.406-.156zM10.137 12.727L8.159 15.2a5 5 0 016.122-7.652l-1.98 2.474a2 2 0 00-2.165 2.706z"/><path d="M16.813 10.642l3.165-3.91A13.041 13.041 0 0124.008 12c-1.96 4.698-6.596 8-12.004 8a13.06 13.06 0 01-2.562-.252l2.233-2.758A5.203 5.203 0 0012 17a5 5 0 004.813-6.358z"/></g><defs><clipPath id="clip0"><path fill="#fff" d="M0 0h24v24H0z"/></clipPath></defs></svg>