<svg width="83" height="20" fill="none" xmlns="http://www.w3.org/2000/svg"><path fill-rule="evenodd" clip-rule="evenodd" d="M55.928 8.605H53.72c-.233 0-.349.116-.465.232l-3.023 4.419-1.28-4.303c-.116-.232-.348-.465-.58-.465h-2.094c-.232 0-.349.117-.349.35v.115l2.442 7.093-2.442 3.373c0 .116-.116.116-.116.232 0 .233.116.349.349.349h2.21c.232 0 .348-.116.464-.233l7.326-10.465c0-.116.116-.116.116-.232 0-.233-.116-.465-.349-.465zm-14.418 4.07c-.233 1.278-1.163 2.092-2.442 2.092-.581 0-1.163-.232-1.512-.581-.348-.349-.465-.93-.348-1.512.232-1.279 1.162-2.093 2.441-2.093.582 0 1.163.233 1.396.582.349.348.581.93.465 1.511zm2.79-4.07h-2.209c-.232 0-.349.116-.349.348l-.116.582-.116-.233c-.465-.697-1.512-.93-2.558-.93-2.442 0-4.419 1.86-4.884 4.419-.233 1.279.116 2.441.814 3.372.698.814 1.628 1.163 2.79 1.163 1.977 0 3.024-1.28 3.024-1.28l-.116.582v.116c0 .233.116.349.348.349h1.977c.349 0 .581-.233.581-.581L44.65 9.07v-.117c.117-.116-.116-.348-.349-.348zm-13.023.116c-.232 1.628-1.511 1.628-2.674 1.628h-.698l.465-3.024c0-.232.233-.348.35-.348h.348c.814 0 1.628 0 1.977.465.232.232.348.697.232 1.279zm-.465-4.302c1.512 0 2.674.348 3.256 1.162.581.698.814 1.628.581 2.907-.465 2.907-2.209 4.303-5.116 4.303h-1.395c-.35 0-.582.232-.582.581l-.465 3.14c0 .348-.349.58-.581.58H24.3c-.232 0-.348-.115-.348-.348v-.116L25.812 5c0-.349.349-.581.581-.581h4.42zm48.488.348l-1.86 11.86v.117c0 .233.116.349.349.349h1.86c.35 0 .582-.233.582-.581l1.86-11.628v-.117c0-.232-.116-.348-.349-.348H79.65c-.116 0-.349.116-.349.348zm-5.58 8.14C73.486 14.186 72.555 15 71.276 15c-.581 0-1.163-.233-1.511-.582-.35-.348-.466-.93-.35-1.511.233-1.28 1.163-2.093 2.443-2.093.581 0 1.162.232 1.395.581.465.35.581.814.465 1.512zm3.022-4.302h-2.209c-.233 0-.349.116-.349.348l-.116.582-.116-.233c-.465-.697-1.512-.93-2.558-.93-2.442 0-4.42 1.86-4.884 4.419-.233 1.279.116 2.441.814 3.372.697.814 1.628 1.163 2.79 1.163 1.977 0 3.024-1.28 3.024-1.28l-.117.582v.116c0 .233.117.349.35.349h1.976c.349 0 .581-.233.581-.581l1.163-7.442c0-.233-.116-.465-.349-.465zm-13.023 0c-.233 1.627-1.512 1.627-2.674 1.627h-.698l.465-3.023c0-.232.233-.349.349-.349h.349c.814 0 1.628 0 1.977.465.232.233.348.698.232 1.28zm-.581-4.186c1.511 0 2.674.348 3.256 1.162.58.698.813 1.628.58 2.907-.464 2.907-2.208 4.303-5.115 4.303h-1.396c-.349 0-.581.232-.581.581l-.465 3.256c0 .232-.233.349-.465.349h-2.326c-.232 0-.349-.117-.349-.35v-.115l1.86-11.628c0-.35.35-.582.582-.582h4.419v.117zM14.535 1.512C13.605.465 11.977 0 9.767 0H3.488c-.465 0-.814.349-.93.698L0 17.093v.116c0 .35.233.582.581.582H4.42l.93-6.163v.232c.116-.465.465-.697.93-.697h1.86c3.605 0 6.396-1.512 7.21-5.698.232-1.512.232-2.79-.814-3.953z" fill="#fff"/><path opacity=".64" fill-rule="evenodd" clip-rule="evenodd" d="M4.417 17.79l-.232 1.628v.117A.5.5 0 004.65 20h3.255c.35 0 .698-.233.814-.698v-.116l.582-3.837v-.233c.116-.349.349-.697.814-.697h.465c3.14 0 5.581-1.28 6.279-5 .349-1.512.116-2.791-.698-3.721-.232-.233-.581-.466-.93-.698-.232-.116-.465-.233-.698-.233h-.232c-.233-.116-.582-.116-.814-.232-.465-.117-1.047-.117-1.512-.117h-5c-.349 0-.697.233-.814.698-.814 7.326-.349 3.721-1.744 12.675z" fill="#fff"/><path fill-rule="evenodd" clip-rule="evenodd" d="M14.535 4.651c-.233-.116-.582-.116-.814-.232-.465-.117-1.047-.117-1.512-.117h-5c-.349 0-.698.233-.814.698L5.35 11.628v.232c.116-.465.465-.697.93-.697h1.86c3.605 0 6.396-1.512 7.21-5.698 0-.116 0-.233.116-.349-.233-.116-.465-.232-.698-.232l-.232-.233z" fill="#fff"/></svg>