<svg width="66" height="62" fill="none" xmlns="http://www.w3.org/2000/svg"><path d="M9.237 44.527a2.717 2.717 0 00-.444-.034c-.592 0-.994.252-1.206.757V49h-.903v-5.283h.878l.015.61c.296-.472.716-.708 1.26-.708.176 0 .31.023.4.069v.84zm2.93 4.571c-.716 0-1.299-.235-1.748-.703-.45-.473-.674-1.102-.674-1.89v-.166c0-.524.1-.991.298-1.401.202-.414.482-.736.84-.967a2.113 2.113 0 011.172-.352c.687 0 1.22.226 1.601.679.381.452.571 1.1.571 1.943v.376h-3.579c.014.521.165.943.454 1.265.293.319.665.478 1.114.478.319 0 .589-.065.81-.195.222-.13.415-.303.581-.517l.552.43c-.443.68-1.107 1.02-1.992 1.02zm-.112-4.737c-.365 0-.67.134-.918.4-.248.264-.4.636-.46 1.114h2.647v-.068c-.026-.46-.15-.814-.37-1.065-.222-.254-.522-.38-.9-.38zm8.593 2.383c-.087.752-.366 1.333-.834 1.743-.466.407-1.086.61-1.86.61-.84 0-1.515-.3-2.022-.903-.505-.602-.757-1.408-.757-2.417v-.683c0-.661.117-1.242.351-1.743a2.644 2.644 0 011.006-1.153c.433-.27.934-.405 1.504-.405.755 0 1.36.212 1.816.635.456.42.722 1.002.796 1.748h-.942c-.081-.567-.259-.977-.532-1.23-.27-.255-.65-.381-1.138-.381-.599 0-1.07.22-1.411.663-.338.443-.508 1.073-.508 1.89v.689c0 .771.161 1.385.484 1.84.322.456.773.684 1.352.684.521 0 .92-.117 1.196-.352.28-.237.466-.649.557-1.235h.942zm5.21.401H22.88L22.21 49h-.966l2.715-7.11h.82L27.5 49h-.962l-.679-1.855zm-2.695-.772h2.417l-1.21-3.325-1.207 3.325zm6.231-.156V49h-.938v-7.11h2.622c.778 0 1.387.2 1.826.596.443.398.664.923.664 1.578 0 .69-.216 1.222-.65 1.596-.429.371-1.046.557-1.85.557h-1.674zm0-.767h1.684c.501 0 .886-.117 1.152-.351.267-.238.4-.58.4-1.026 0-.423-.133-.761-.4-1.015-.266-.254-.633-.386-1.098-.396h-1.738v2.788zm10.283-2.788h-2.285V49h-.933v-6.338h-2.28v-.771h5.498v.771zm6.147 4.082c-.088.752-.366 1.333-.835 1.743-.465.407-1.085.61-1.86.61-.84 0-1.514-.3-2.022-.903-.504-.602-.756-1.408-.756-2.417v-.683c0-.661.117-1.242.351-1.743a2.645 2.645 0 011.006-1.153c.433-.27.934-.405 1.504-.405.755 0 1.36.212 1.816.635.456.42.721 1.002.796 1.748h-.942c-.081-.567-.259-.977-.532-1.23-.27-.255-.65-.381-1.138-.381-.599 0-1.07.22-1.411.663-.339.443-.508 1.073-.508 1.89v.689c0 .771.161 1.385.483 1.84.323.456.773.684 1.353.684.52 0 .92-.117 1.196-.352.28-.237.466-.649.557-1.235h.942zM52.572 49h-.942v-3.286h-3.584V49h-.938v-7.11h.938v3.057h3.584v-3.056h.942V49zm5.679-1.855h-2.978L54.602 49h-.966l2.715-7.11h.82l2.72 7.11h-.962l-.679-1.855zm-2.695-.772h2.417l-1.211-3.325-1.206 3.325zM5.75 57.54v2.226H5v-5.688h2.098c.622 0 1.109.159 1.46.477.355.317.532.738.532 1.261 0 .552-.173.978-.52 1.278-.343.297-.837.445-1.48.445H5.75zm0-.614h1.348c.4 0 .708-.094.922-.282.213-.19.32-.463.32-.82 0-.338-.107-.61-.32-.812-.214-.203-.507-.309-.88-.317H5.75v2.23zm6.227-.738a2.17 2.17 0 00-.356-.028c-.474 0-.796.202-.965.606v3h-.722v-4.227h.703l.011.488c.237-.377.573-.566 1.008-.566a.74.74 0 01.32.055v.672zm1.453 3.578h-.723v-4.227h.723v4.227zm-.782-5.348a.44.44 0 01.106-.297c.073-.08.18-.121.32-.121s.248.04.32.121c.073.08.11.18.11.297a.413.413 0 01-.11.293c-.072.078-.18.117-.32.117s-.247-.039-.32-.117a.421.421 0 01-.106-.293zm3.336 4.367l1.047-3.246h.739l-1.516 4.227h-.55l-1.532-4.227h.738l1.074 3.246zm5.028.981c-.042-.084-.076-.232-.102-.446a1.612 1.612 0 01-1.203.524c-.417 0-.76-.117-1.027-.352a1.152 1.152 0 01-.399-.898c0-.44.167-.782.5-1.024.336-.245.808-.367 1.414-.367h.703v-.332c0-.253-.075-.453-.226-.602-.151-.15-.374-.226-.668-.226-.258 0-.474.065-.649.195-.174.13-.261.288-.261.473h-.727c0-.211.074-.414.223-.61.15-.197.354-.354.61-.468.257-.115.54-.172.847-.172.487 0 .868.122 1.144.367.276.242.42.577.43 1.004v1.945c0 .388.05.697.149.926v.063h-.758zm-1.2-.551c.227 0 .442-.059.645-.176.203-.117.35-.27.441-.457v-.867h-.566c-.885 0-1.328.259-1.328.777 0 .227.075.404.226.531a.87.87 0 00.582.192zm4.638.039c.257 0 .482-.078.675-.234a.824.824 0 00.32-.586h.684a1.31 1.31 0 01-.25.691c-.154.219-.36.393-.617.523a1.77 1.77 0 01-.813.196c-.575 0-1.034-.192-1.375-.575-.338-.385-.508-.91-.508-1.578v-.12c0-.412.076-.778.227-1.098.151-.32.367-.57.648-.746a1.858 1.858 0 011.004-.266c.474 0 .867.142 1.18.426.315.284.483.652.504 1.105h-.684a.985.985 0 00-.312-.672.955.955 0 00-.688-.265c-.367 0-.652.133-.855.398-.2.263-.3.645-.3 1.145v.136c0 .487.1.862.3 1.125.2.263.487.395.86.395zm3.874-.547l.985-3.168h.773l-1.7 4.879c-.262.703-.68 1.055-1.253 1.055l-.137-.012-.27-.05v-.587l.196.016c.245 0 .435-.05.57-.149.138-.099.252-.28.34-.543l.16-.43-1.508-4.179h.79l1.054 3.168zm14.606-4.012h-1.828v5.07h-.746v-5.07H38.53v-.617h4.399v.617zm2.093 5.149c-.573 0-1.039-.188-1.398-.563-.36-.377-.54-.881-.54-1.511v-.133c0-.42.08-.793.24-1.121.16-.331.385-.589.671-.774a1.69 1.69 0 01.938-.281c.55 0 .976.18 1.28.543.306.362.458.88.458 1.555v.3h-2.863c.01.417.131.754.363 1.012.234.255.531.383.89.383.256 0 .472-.052.649-.156a1.63 1.63 0 00.465-.414l.441.343c-.354.545-.885.817-1.594.817zm-.09-3.79a.961.961 0 00-.734.321c-.198.21-.32.508-.367.89h2.117v-.054c-.02-.367-.12-.651-.297-.852-.177-.203-.416-.304-.718-.304zm4.622.134a2.17 2.17 0 00-.356-.028c-.474 0-.795.202-.965.606v3h-.722v-4.227h.703l.012.488c.237-.377.573-.566 1.007-.566a.74.74 0 01.32.055v.672zm1.347-.648l.02.468c.31-.365.728-.547 1.254-.547.59 0 .993.227 1.207.68.14-.203.323-.368.547-.493.226-.125.493-.187.8-.187.928 0 1.399.49 1.415 1.473v2.832h-.723v-2.79c0-.301-.07-.527-.207-.675-.138-.151-.37-.227-.696-.227-.268 0-.49.08-.667.242a.967.967 0 00-.309.645v2.805h-.727v-2.77c0-.614-.3-.922-.902-.922-.474 0-.798.202-.973.606v3.086h-.722v-4.227h.683zm8.798 3.105a.525.525 0 00-.223-.454c-.146-.109-.403-.203-.77-.28a3.681 3.681 0 01-.871-.282 1.26 1.26 0 01-.477-.39.943.943 0 01-.152-.54c0-.346.146-.64.438-.879.294-.24.669-.36 1.124-.36.48 0 .868.125 1.165.372.3.247.449.564.449.95h-.727a.65.65 0 00-.254-.512.936.936 0 00-.633-.215c-.262 0-.468.057-.617.172a.54.54 0 00-.222.449c0 .174.069.306.207.394.138.089.386.173.746.254.362.08.655.177.879.29.224.111.389.247.496.406a.97.97 0 01.164.574c0 .377-.151.68-.453.91-.302.227-.694.34-1.176.34a2.12 2.12 0 01-.898-.18 1.482 1.482 0 01-.614-.5 1.227 1.227 0 01-.218-.7h.722c.013.243.11.436.29.579.181.14.421.21.718.21.273 0 .492-.054.656-.163a.514.514 0 00.25-.446z" fill="#555"/><path d="M35.328 57.965h-2.05v-.766h2.05v.766z" fill="#000"/><g filter="url(#filter0_d)"><path d="M44.401 11.338a14.272 14.272 0 00-19.13-2.884l4.117 6.08a6.93 6.93 0 019.757 2.06L35.5 20.239h12.11V8.13l-3.21 3.209z" fill="#1C3AA9"/></g><g filter="url(#filter1_d)"><path d="M33.239 6h-12.11l3.172 3.172a14.272 14.272 0 00-3.765 17.542L27.09 23.4a6.929 6.929 0 012.465-8.975l3.685 3.685V6z" fill="#4285F4"/></g><g filter="url(#filter2_d)"><path d="M19 20.372h12.11l-3.66 3.658a6.93 6.93 0 0011.878-.392l5.296 5.283a14.273 14.273 0 01-22.422.358L19 32.481V20.37z" fill="#ABABAB"/></g><defs><filter id="filter0_d" x="24.271" y="5" width="24.339" height="16.238" filterUnits="userSpaceOnUse" color-interpolation-filters="sRGB"><feFlood flood-opacity="0" result="BackgroundImageFix"/><feColorMatrix in="SourceAlpha" values="0 0 0 0 0 0 0 0 0 0 0 0 0 0 0 0 0 0 127 0"/><feOffset/><feGaussianBlur stdDeviation=".5"/><feColorMatrix values="0 0 0 0 0 0 0 0 0 0 0 0 0 0 0 0 0 0 0.38 0"/><feBlend in2="BackgroundImageFix" result="effect1_dropShadow"/><feBlend in="SourceGraphic" in2="effect1_dropShadow" result="shape"/></filter><filter id="filter1_d" x="18" y="5.001" width="16.238" height="22.713" filterUnits="userSpaceOnUse" color-interpolation-filters="sRGB"><feFlood flood-opacity="0" result="BackgroundImageFix"/><feColorMatrix in="SourceAlpha" values="0 0 0 0 0 0 0 0 0 0 0 0 0 0 0 0 0 0 127 0"/><feOffset/><feGaussianBlur stdDeviation=".5"/><feColorMatrix values="0 0 0 0 0 0 0 0 0 0 0 0 0 0 0 0 0 0 0.38 0"/><feBlend in2="BackgroundImageFix" result="effect1_dropShadow"/><feBlend in="SourceGraphic" in2="effect1_dropShadow" result="shape"/></filter><filter id="filter2_d" x="18" y="19.372" width="27.624" height="16.172" filterUnits="userSpaceOnUse" color-interpolation-filters="sRGB"><feFlood flood-opacity="0" result="BackgroundImageFix"/><feColorMatrix in="SourceAlpha" values="0 0 0 0 0 0 0 0 0 0 0 0 0 0 0 0 0 0 127 0"/><feOffset/><feGaussianBlur stdDeviation=".5"/><feColorMatrix values="0 0 0 0 0 0 0 0 0 0 0 0 0 0 0 0 0 0 0.38 0"/><feBlend in2="BackgroundImageFix" result="effect1_dropShadow"/><feBlend in="SourceGraphic" in2="effect1_dropShadow" result="shape"/></filter></defs></svg>